<?xml version="1.0" standalone="no"?><!DOCTYPE svg PUBLIC "-//W3C//DTD SVG 1.1//EN" "http://www.w3.org/Graphics/SVG/1.1/DTD/svg11.dtd"><svg t="1716602214256" class="icon" viewBox="0 0 1024 1024" version="1.1" xmlns="http://www.w3.org/2000/svg" p-id="21210" xmlns:xlink="http://www.w3.org/1999/xlink" width="200" height="200"><path d="M767.4 623.5c-92.8 0-168 75.2-168 168s75.2 168 168 168 168-75.2 168-168-75.2-168-168-168z m0 294.2c-69.8 0-126.1-56.3-126.1-126.1s56.3-126.1 126.1-126.1 126.1 56.3 126.1 126.1-56.7 126.1-126.1 126.1z" p-id="21211"></path><path d="M851.7 770.8h-63.1v-63.1c0-11.7-9.5-21.2-21.2-21.2s-21.2 9.5-21.2 21.2V792c0 11.7 9.5 21.2 21.2 21.2h84.2c11.7 0 21.2-9.5 21.2-21.2s-9.4-21.2-21.1-21.2zM534.5 187.9h-24.8v-24.8c0-12.6-12.6-24.8-24.8-24.8s-24.8 12.6-24.8 24.8v24.8h-24.8c-12.6 0-24.8 12.6-24.8 24.8 0 12.2 12.6 24.8 24.8 24.8h24.8v24.8c0 12.6 12.6 24.8 24.8 24.8s24.8-12.6 24.8-24.8v-24.8h24.8c12.6 0 24.8-12.6 24.8-24.8 0-12.2-12.6-24.8-24.8-24.8z" p-id="21212"></path><path d="M617.4 906.4h-45.9l-14.9-22.5 33.8-26.1c-6.3-16.7-10.4-34.7-11.7-53.6l-9.9 7.7-39.6 32.4-12.6-17.1 87.8-131.5c3.6-5.9 7.2-11.7 11.3-17.1l5-7.7 0.5 0.9c18-21.6 40.5-39.2 66.7-51.4 3.6-1.4 6.3-5 6.3-9 0-4.5-3.2-8.1-7.2-9.5-10.8-4.1-22.1-7.7-33.3-10.4 49.6-44.6 79.3-109 79.3-180.6V128.4c0-9.9-5-19.8-14.9-22.5C685.4 93.3 598.9 64 485 64s-198.2 29.7-232.9 41.9c-9.9 5-14.9 12.6-14.9 22.5V401c0 74.3 32.4 141 82 190.5C187.7 621.3 88.6 740.2 88.6 881.6c0 41.9 32.4 74.3 74.3 74.3h511.7c-22.1-12.6-41.4-29.2-57.2-49.5zM487.2 779.8L385.9 636.1c24.8 12.6 51.8 19.8 82 19.8H485c34.7 0 69.4-7.7 99.1-22.5l-96.9 146.4zM288.6 403.2v-5h-2.3c47.3-17.6 114-37.4 198.2-37.4 24.8 0 47.3 2.3 72.1 5 12.6 2.3 27-7.2 27-22.5 2.3-12.6-7.7-27-22.5-27-24.8-2.3-51.8-5-76.6-5-84.2 0-156.3 19.8-198.2 34.7V145.6c64-21.6 130.6-32.4 198.2-32 91.4 0 161.3 19.8 198.2 32v200.9c-7.2-2.7-17.1-5-27-9.9-11.3-4.5-23.9 1.4-28.4 12.6-0.5 1.4-0.9 3.2-1.4 5-5 12.6 2.7 27 17.6 29.7 14.9 5 29.7 9.9 41.9 14.9v12.6c0 108.6-89.2 197.8-198.2 197.8h-12.6c-104-7.8-186-97-186-206zM162.9 903.7c-14.9 2.3-24.8-7.7-24.8-22.5 0-109 69.4-200.5 165.8-232.9l-32 82c-7.7 19.8-2.3 44.6 17.1 56.8l84.2 62.2 69.4 54.5H162.9zM485 878.9l-84.2-66.7-84.2-62.2 32.4-79.3 141 205.4-5 2.8z" p-id="21213"></path></svg>