<?xml version="1.0" standalone="no"?><!DOCTYPE svg PUBLIC "-//W3C//DTD SVG 1.1//EN" "http://www.w3.org/Graphics/SVG/1.1/DTD/svg11.dtd"><svg t="1716792673220" class="icon" viewBox="0 0 1024 1024" version="1.1" xmlns="http://www.w3.org/2000/svg" p-id="13951" xmlns:xlink="http://www.w3.org/1999/xlink" width="200" height="200"><path d="M512.000244 504.685714A227.961905 227.961905 0 1 0 512.000244 48.761905a227.961905 227.961905 0 0 0 0 455.923809z m287.110095 92.647619A487.619048 487.619048 0 0 0 24.381196 992.304762V1024h632.685714a243.809524 243.809524 0 0 1 142.043429-426.666667zM938.66691 780.190476H877.71453v-60.952381a60.952381 60.952381 0 0 0-121.904762 0V780.190476h-60.952381a60.952381 60.952381 0 1 0 0 121.904762H755.809768v60.952381a60.952381 60.952381 0 1 0 121.904762 0V902.095238h60.95238a60.952381 60.952381 0 0 0 0-121.904762z" p-id="13952" fill="#515151"></path></svg>