<?xml version="1.0" standalone="no"?><!DOCTYPE svg PUBLIC "-//W3C//DTD SVG 1.1//EN" "http://www.w3.org/Graphics/SVG/1.1/DTD/svg11.dtd"><svg t="1716601966385" class="icon" viewBox="0 0 1024 1024" version="1.1" xmlns="http://www.w3.org/2000/svg" p-id="15508" xmlns:xlink="http://www.w3.org/1999/xlink" width="200" height="200"><path d="M986.793 558.367l-425.18-450.279c-29.404-29.404-77.072-29.404-106.476 0L36.357 551.962 0 517.335 419.645 72.596c49.004-49.003 128.456-49.003 177.46 0l425.62 450.714-35.932 35.057zM144.466 861.676c0 41.584 33.71 75.29 75.29 75.29h125.486V635.801c0-41.585 33.71-75.29 75.29-75.29h175.677c41.584 0 75.29 33.71 75.29 75.29v301.163h125.485c41.585 0 75.29-33.71 75.29-75.29V535.415h50.196v351.36c0 55.444-44.948 100.388-100.387 100.388H621.307V660.9c0-27.72-22.472-50.197-50.197-50.197H445.63a50.191 50.191 0 0 0-50.197 50.197v326.262h-200.77c-55.445 0-100.388-44.949-100.388-100.388v-351.36h50.196v326.262z" p-id="15509"></path></svg>