<?xml version="1.0" standalone="no"?><!DOCTYPE svg PUBLIC "-//W3C//DTD SVG 1.1//EN" "http://www.w3.org/Graphics/SVG/1.1/DTD/svg11.dtd"><svg t="1716792956075" class="icon" viewBox="0 0 1024 1024" version="1.1" xmlns="http://www.w3.org/2000/svg" p-id="2371" xmlns:xlink="http://www.w3.org/1999/xlink" width="200" height="200"><path d="M317.613105 673.255619h290.669714a71.92381 71.92381 0 0 0 70.753524-73.142857V440.222476a24.966095 24.966095 0 0 0-24.624762-25.404952H317.613105a24.966095 24.966095 0 0 0-24.624762 25.404952v207.628191a25.014857 25.014857 0 0 0 24.624762 25.404952z m53.394285-300.860952h229.961143a24.966095 24.966095 0 0 0 24.624762-25.404953v-97.523809a24.966095 24.966095 0 0 0-24.624762-25.161143H371.00739a24.966095 24.966095 0 0 0-24.624761 25.453714v97.52381a24.966095 24.966095 0 0 0 24.624761 25.404952z m-321.828571 300.860952h181.686857a24.966095 24.966095 0 0 0 24.624762-25.404952V397.848381a25.112381 25.112381 0 0 1 24.722286-25.404952 25.014857 25.014857 0 0 0 24.380952-25.404953V290.864762a24.966095 24.966095 0 0 0-24.624762-25.404952H49.130057A24.966095 24.966095 0 0 0 24.505295 290.864762v356.985905a24.966095 24.966095 0 0 0 24.624762 25.404952zM910.021486 97.52381h-25.258667a146.285714 146.285714 0 0 0-143.750095 148.187428l-0.292572 401.993143a87.28381 87.28381 0 0 1-85.967238 88.600381H49.666438a24.966095 24.966095 0 0 0-24.624762 25.404952v105.959619a24.966095 24.966095 0 0 0 24.624762 25.404953h59.099429a106.300952 106.300952 0 0 1 104.594285-104.350476 106.25219 106.25219 0 0 1 104.594286 104.350476h253.561905a104.643048 104.643048 0 0 1 209.237333 0 91.37981 91.37981 0 0 0 89.916953-92.647619V289.255619a56.368762 56.368762 0 0 1 55.442285-57.197714 24.966095 24.966095 0 0 0 24.868572-25.453715V139.897905A41.593905 41.593905 0 0 0 910.021486 97.52381zM216.285867 825.831619A74.752 74.752 0 0 0 211.555962 975.238095a74.752 74.752 0 0 0 4.87619-149.357714z m461.970285 0a74.752 74.752 0 1 0 70.022096 72.265143 73.581714 73.581714 0 0 0-70.022096-72.265143z" fill="#515151" p-id="2372"></path></svg>