<?xml version="1.0" standalone="no"?><!DOCTYPE svg PUBLIC "-//W3C//DTD SVG 1.1//EN" "http://www.w3.org/Graphics/SVG/1.1/DTD/svg11.dtd"><svg t="1716602832603" class="icon" viewBox="0 0 1024 1024" version="1.1" xmlns="http://www.w3.org/2000/svg" p-id="42099" xmlns:xlink="http://www.w3.org/1999/xlink" width="200" height="200"><path d="M398.69642857 558.6558642h229.55357143c10.44642858 0 18.92857143-8.48214286 18.92857143-18.92857143s-8.48214286-18.92857143-18.92857143-18.92857143H398.69642857c-10.44642858 0-18.92857143 8.48214286-18.92857142 18.92857143s8.48214286 18.92857143 18.92857143 18.92857143z m491.78571429-179.10714287c-0.08928572-0.08928572 0-0.26785715-0.08928572-0.35714285L770.66071429 151.95943562c-3.12500001-6.60714286-9.82142857-10.80357143-17.14285715-10.80357143h-484.82142856c-7.32142857 0-14.01785715 4.19642858-17.14285716 10.80357143L135.39285714 379.19157847c-0.08928572 0.08928572 0 0.26785715-0.08928572 0.35714287-1.07142857 2.41071429-1.78571429 5-1.78571428 7.76785714V861.06657848c0 10.44642858 8.48214286 18.92857143 18.92857144 18.92857143h720.80357142c10.44642858 0 18.92857143-8.48214286 18.92857143-18.92857143V387.31657848c0.08928572-2.76785715-0.62500001-5.35714286-1.69642858-7.76785715zM531.82142857 179.10229276h209.73214286l101.69642857 189.28571429H531.82142857v-189.28571429z m-251.16071429 0h213.21428573v189.28571429H182.53571429l98.125-189.28571429z m573.66071429 662.94642858H171.46428571v-435.71428571h682.85714286v435.71428571z" p-id="42100"></path></svg>