<?xml version="1.0" standalone="no"?><!DOCTYPE svg PUBLIC "-//W3C//DTD SVG 1.1//EN" "http://www.w3.org/Graphics/SVG/1.1/DTD/svg11.dtd"><svg t="1716792080588" class="icon" viewBox="0 0 1024 1024" version="1.1" xmlns="http://www.w3.org/2000/svg" p-id="3658" xmlns:xlink="http://www.w3.org/1999/xlink" width="200" height="200"><path d="M510.7 514.1c92.6-0.3 177.8-50.8 222.5-132C777.9 301 775 202 725.7 123.6 676.3 45.2 588.3-0.3 495.8 4.8c-126.1 7.4-230.2 110.3-238.7 236.6-9.5 148.7 107.2 272.7 253.6 272.7z m1 82.7C342 596.8 3.6 681.7 3.6 851.5v127.3c0.1 23.4 19 42.3 42.4 42.4h931.5c23.4-0.1 42.4-19 42.4-42.4V850.2c0-168.5-338.5-253.4-508.2-253.4z m0 0" fill="#707070" p-id="3659"></path></svg>