<?xml version="1.0" standalone="no"?><!DOCTYPE svg PUBLIC "-//W3C//DTD SVG 1.1//EN" "http://www.w3.org/Graphics/SVG/1.1/DTD/svg11.dtd"><svg t="1716602289909" class="icon" viewBox="0 0 1024 1024" version="1.1" xmlns="http://www.w3.org/2000/svg" p-id="21355" xmlns:xlink="http://www.w3.org/1999/xlink" width="200" height="200"><path d="M354.986667 284.16h-42.666667V130.133333a5.546667 5.546667 0 0 0 0-2.56h13.653333a20.48 20.48 0 0 0 20.48-20.48 20.906667 20.906667 0 0 0-19.626666-21.76H221.866667a20.906667 20.906667 0 0 0-20.48 20.48 20.48 20.48 0 0 0 20.48 22.186667h13.653333v156.16h-42.666667a20.48 20.48 0 0 0-20.48 20.48 20.906667 20.906667 0 0 0 20.48 20.48h13.653334v341.333333a15.36 15.36 0 0 0 2.56 8.533334l23.466666 35.84 9.813334 40.533333a15.36 15.36 0 0 0 14.933333 11.946667h3.413333v170.666666a13.226667 13.226667 0 0 0 12.8 12.8 12.8 12.8 0 0 0 12.8-12.8v-170.666666h4.693334a16.213333 16.213333 0 0 0 14.933333-11.093334l11.52-42.666666 21.333333-36.693334a15.786667 15.786667 0 0 0 0-7.68v-341.333333h13.226667a20.906667 20.906667 0 0 0 20.48-20.48 20.48 20.48 0 0 0-17.493333-19.2zM265.813333 128h17.066667v156.16h-16.64V130.133333L265.813333 128z m-6.826666 197.12v141.226667h-20.906667V325.12z m52.053333 338.346667l-20.48 34.56v3.84l-8.533333 32h-11.52l-7.68-31.573334a15.786667 15.786667 0 0 0 0-4.693333l-22.613334-34.56v-160.853333h70.826667z m0-197.12h-21.333333V325.12h21.333333zM805.12 244.48a55.466667 55.466667 0 0 0-22.186667 4.266667v-42.666667A58.453333 58.453333 0 0 0 725.333333 148.053333a54.186667 54.186667 0 0 0-22.186666 4.266667v-11.946667a58.88 58.88 0 0 0-117.333334 0v11.946667a55.466667 55.466667 0 0 0-22.186666-4.266667 58.453333 58.453333 0 0 0-58.88 58.453334v258.133333l-5.12-10.666667a59.733333 59.733333 0 0 0-34.133334-29.44 60.586667 60.586667 0 0 0-45.653333 2.133334 58.88 58.88 0 0 0-29.013333 34.133333 56.746667 56.746667 0 0 0 3.413333 44.8l140.8 278.186667v77.653333A74.666667 74.666667 0 0 0 609.706667 938.666667h179.2a74.666667 74.666667 0 0 0 75.093333-74.666667V302.933333a58.453333 58.453333 0 0 0-58.88-58.453333z m23.04 507.733333h-31.573333a17.92 17.92 0 0 0 0 35.84h31.573333v74.666667a39.253333 39.253333 0 0 1-39.253333 38.826667h-179.2a38.826667 38.826667 0 0 1-38.826667-38.826667v-74.666667h18.346667a17.92 17.92 0 0 0 0-35.84h-30.72L426.666667 490.666667a20.906667 20.906667 0 0 1 0-17.493334 20.48 20.48 0 0 1 11.093333-13.226666 24.746667 24.746667 0 0 1 17.493333 0 24.32 24.32 0 0 1 13.226667 11.093333l34.56 68.266667a17.92 17.92 0 0 0 23.893333 8.106666 17.066667 17.066667 0 0 0 7.253334-7.253333 16.64 16.64 0 0 0 7.253333-14.08V206.506667a23.04 23.04 0 0 1 45.226667-4.266667v233.386667a8.106667 8.106667 0 0 0 0 3.413333v8.106667a17.92 17.92 0 0 0 35.84 0V206.506667a34.56 34.56 0 0 0 0-6.826667V140.373333a23.04 23.04 0 0 1 45.653333 0v59.306667a34.56 34.56 0 0 0 0 6.826667v240.64a17.493333 17.493333 0 0 0 17.92 17.92 17.92 17.92 0 0 0 17.92-17.92v-8.106667-236.8a22.186667 22.186667 0 0 1 21.333333-18.346667 22.613333 22.613333 0 0 1 22.613334 22.613334v89.6a36.693333 36.693333 0 0 0 0 6.826666v133.12a11.946667 11.946667 0 0 0 0 3.84v7.253334a17.92 17.92 0 0 0 35.84 0V298.666667a22.613333 22.613333 0 0 1 22.186666-18.346667 23.04 23.04 0 0 1 23.04 22.613333z" fill="#666666" p-id="21356"></path></svg>