<?xml version="1.0" standalone="no"?><!DOCTYPE svg PUBLIC "-//W3C//DTD SVG 1.1//EN" "http://www.w3.org/Graphics/SVG/1.1/DTD/svg11.dtd"><svg t="1716792299355" class="icon" viewBox="0 0 1024 1024" version="1.1" xmlns="http://www.w3.org/2000/svg" p-id="8234" xmlns:xlink="http://www.w3.org/1999/xlink" width="200" height="200"><path d="M1007.179606 853.867397c-6.348456-9.522685-15.871141-9.522685-25.393826-6.348456l-15.871141 9.522684-92.052619-146.014499v-3.174228l12.696913-6.348456 44.439195-28.568055c9.522685-6.348456 9.522685-15.871141 6.348456-25.393826-6.348456-9.522685-15.871141-9.522685-25.393825-6.348456l-28.568055 19.045369L569.136108 190.453695c-3.174228-6.348456-9.522685-9.522685-15.871141-9.522685l-142.840271 6.348456L299.326708 19.045369C292.978251 9.522685 283.455567 9.522685 273.932882 12.696913c-3.174228 3.174228-6.348456 6.348456-9.522685 12.696913 0 3.174228 0 9.522685 3.174228 12.696913l111.097989 168.234097-63.484565 130.143358v3.174228c0 6.348456 0 9.522685 3.174228 12.696913l311.074368 469.78578-28.568054 19.045369c-3.174228 3.174228-6.348456 6.348456-9.522685 12.696913 0 3.174228 0 9.522685 3.174228 12.696913 6.348456 9.522685 15.871141 9.522685 25.393826 6.348457l44.439196-28.568054 22.219597-15.871142c0 3.174228 3.174228 6.348456 3.174229 9.522685l88.87839 139.666043-19.045369 12.696913c-3.174228 3.174228-6.348456 6.348456-9.522685 12.696913 0 3.174228 0 9.522685 3.174228 12.696913 6.348456 9.522685 15.871141 9.522685 25.393826 6.348456l222.195977-146.014499c9.522685-3.174228 12.696913-15.871141 6.348457-22.219598zM512 339.642422c-3.174228-3.174228-3.174228-9.522685-3.174228-12.696913s3.174228-9.522685 9.522684-12.696913l44.439196-28.568054c9.522685-6.348456 19.045369-3.174228 25.393826 6.348456 6.348456 9.522685 3.174228 19.045369-6.348457 25.393826l-44.439195 28.568054c-6.348456 3.174228-19.045369 3.174228-25.393826-6.348456z m63.484565 69.833021c-3.174228-3.174228-3.174228-9.522685-3.174228-12.696913s3.174228-9.522685 9.522684-12.696913l44.439196-28.568054c9.522685-6.348456 19.045369-3.174228 25.393826 6.348457 6.348456 9.522685 3.174228 19.045369-6.348457 25.393826l-44.439195 28.568054c-9.522685 3.174228-19.045369 3.174228-25.393826-6.348457z m66.658793 88.878391c-9.522685 6.348456-19.045369 3.174228-25.393826-6.348456-3.174228-3.174228-3.174228-9.522685-3.174228-12.696913s3.174228-9.522685 9.522684-12.696913l44.439196-28.568055c9.522685-6.348456 19.045369-3.174228 25.393826 6.348457 6.348456 9.522685 3.174228 19.045369-6.348457 25.393826l-44.439195 28.568054z m34.916511 66.658793c-3.174228-3.174228-3.174228-9.522685-3.174229-12.696913s3.174228-9.522685 9.522685-12.696913l44.439195-28.568054c9.522685-6.348456 19.045369-3.174228 25.393826 6.348457 6.348456 9.522685 3.174228 19.045369-6.348456 25.393825l-44.439195 25.393826c-9.522685 6.348456-19.045369 3.174228-25.393826-3.174228z m41.264967 82.529934c-3.174228-3.174228-3.174228-9.522685-3.174228-12.696912s3.174228-9.522685 9.522684-12.696913l44.439196-28.568055c9.522685-6.348456 19.045369-3.174228 25.393826 6.348457 6.348456 9.522685 3.174228 19.045369-6.348457 25.393826l-44.439195 28.568054c-9.522685 6.348456-22.219598 3.174228-25.393826-6.348457z m12.696913 165.059869c0-3.174228-3.174228-3.174228-6.348457-6.348456l104.749532-69.833022v3.174229l92.052619 146.014499-104.749532 69.833021-85.704162-142.840271z" p-id="8235" fill="#515151"></path><path d="M235.842143 111.097988L226.319458 98.401076l-12.696913 12.696912C166.009122 158.711412 146.963752 206.324836 159.660665 241.241346c9.522685 25.393826 31.742282 38.090739 60.310337 41.264968 28.568054 0 50.787652-12.696913 60.310336-38.090739 12.696913-31.742282 9.522685-82.529934-44.439195-133.317587zM365.985501 492.005378l-250.764031-3.174229c-25.393826 0-44.439195 19.045369-44.439196 44.439196V571.361084c0 25.393826 19.045369 44.439195 44.439196 44.439195l250.764031 3.174228c25.393826 0 44.439195-19.045369 44.439195-44.439195v-38.090739c0-25.393826-19.045369-44.439195-44.439195-44.439195zM365.985501 625.322964l-250.764031-3.174228c-25.393826 0-44.439195 19.045369-44.439196 44.439195L67.608046 936.397332c0 25.393826 19.045369 44.439195 44.439195 44.439195l250.764032 3.174228c25.393826 0 44.439195-19.045369 44.439195-44.439195l3.174228-269.809401c0-22.219598-22.219598-41.264967-44.439195-44.439195M315.197849 825.299343c-22.219598 19.045369-47.613424 44.439195-60.310337 57.136108-3.174228 3.174228-6.348456 6.348456-9.522684 6.348457l-9.522685 9.522685L226.319458 888.783908c-3.174228 0-3.174228-3.174228-9.522685-9.522685l-57.136108-57.136108c-19.045369-19.045369-25.393826-44.439195-19.045369-66.658793 6.348456-22.219598 22.219598-34.916511 44.439195-38.090739h12.696913c15.871141 0 31.742282 6.348456 41.264967 15.871141 9.522685-9.522685 25.393826-15.871141 41.264967-15.871141h12.696913c22.219598 3.174228 38.090739 19.045369 44.439196 41.264967 6.348456 22.219598-3.174228 47.613424-22.219598 66.658793z" p-id="8236" fill="#515151"></path></svg>